<svg xmlns="http://www.w3.org/2000/svg" xmlns:xlink="http://www.w3.org/1999/xlink" id="Layer_1" x="0" y="0" version="1.1" viewBox="0 0 105.2 41.1" xml:space="preserve" style="enable-background:new 0 0 105.2 41.1"><style type="text/css">.st0{fill:#00c9ff}.st1{fill:#00c0ed}.st2{fill:#ed8c0c}.st3{fill:#8defff}.st4{opacity:.95;fill:#00c9ff;enable-background:new}.st5{font-family:&apos;Roboto-Regular&apos;}.st6{font-size:15.2354px}.st7{opacity:.95;fill:#ed8c0c;enable-background:new}.st8{font-family:&apos;Roboto-Medium&apos;}</style><path d="M25.2,10.8c-1.8,0-3.4,0.6-4.9,1.7c-1.4,1.1-2.3,2.4-2.9,3.4c-0.6-1-1.4-2.3-2.9-3.4s-3.1-1.7-4.9-1.7 c-5.1,0-8.8,4.1-8.8,9.5c0,5.8,4.7,9.8,11.8,15.9c1.2,1,2.5,2.2,4,3.4c0.2,0.1,0.4,0.2,0.7,0.2c0.2,0,0.4-0.1,0.7-0.2 c1.4-1.2,2.8-2.4,4-3.4c7.2-6.1,11.8-10,11.8-15.9C33.9,14.9,30.1,10.8,25.2,10.8z" class="st0"/><path d="M46.9,7.3c-0.4,0-0.7,0.1-1,0.4c-0.3,0.2-0.5,0.5-0.6,0.7c-0.1-0.2-0.3-0.5-0.6-0.7s-0.7-0.4-1-0.4 c-1.1,0-1.8,0.9-1.8,2c0,1.2,1,2.1,2.5,3.4c0.3,0.2,0.5,0.5,0.8,0.7l0.1,0.1c0.1,0,0.1,0,0.1-0.1c0.3-0.3,0.6-0.5,0.8-0.7 c1.5-1.3,2.5-2.1,2.5-3.4C48.8,8.2,48,7.3,46.9,7.3z" class="st1"/><path d="M35.2,0c-0.7,0-1.3,0.2-1.8,0.6s-0.9,0.9-1.1,1.3c-0.2-0.4-0.5-0.9-1.1-1.3c-0.4-0.4-1-0.6-1.7-0.6 c-1.8,0-3.2,1.5-3.2,3.5c0,2.2,1.7,3.6,4.4,5.9c0.4,0.4,0.9,0.8,1.5,1.3c0.1,0.1,0.2,0.1,0.2,0.1c0.1,0,0.2,0,0.2-0.1 c0.5-0.5,1-0.9,1.5-1.3c2.6-2.2,4.3-3.7,4.3-5.9C38.4,1.5,37.1,0,35.2,0z" class="st2"/><path d="M30.8,26.9c-0.6,0-1.2,0.2-1.7,0.6s-0.8,0.8-1,1.2c-0.2-0.3-0.5-0.8-1-1.2c-0.5-0.4-1.1-0.6-1.7-0.6 c-1.7,0-3,1.4-3,3.3c0,2,1.6,3.4,4.1,5.5c0.4,0.4,0.9,0.8,1.4,1.2C28,37,28,37,28.1,37s0.2,0,0.2-0.1c0.5-0.4,1-0.8,1.4-1.2 c2.4-2.1,4.1-3.5,4.1-5.5C33.8,28.3,32.5,26.9,30.8,26.9z" class="st3"/><text class="st4 st5 st6" transform="matrix(1 0 0 1 35.1197 36.9573)">promotion</text><text class="st7 st8 st6" transform="matrix(1 0 0 1 35.1194 24.2361)">followers</text><path d="M56.7,1.6c-0.4,0-0.8,0.1-1.1,0.4c-0.3,0.2-0.5,0.6-0.6,0.8c-0.1-0.2-0.3-0.5-0.6-0.8c-0.5-0.3-0.8-0.4-1.2-0.4 c-1.1,0-2,0.9-2,2.2s1.1,2.2,2.7,3.6c0.3,0.2,0.6,0.5,0.9,0.8c0,0,0.1,0.1,0.2,0.1c0.1,0,0.1,0,0.2-0.1c0.3-0.3,0.6-0.5,0.9-0.8 c1.6-1.4,2.7-2.3,2.7-3.6C58.7,2.5,57.8,1.6,56.7,1.6z" class="st2"/><path d="M62.6,10.3c-0.2,0-0.4,0.1-0.5,0.2c-0.1,0.1-0.2,0.3-0.3,0.4c-0.1-0.1-0.2-0.2-0.3-0.4 c-0.2-0.1-0.3-0.2-0.5-0.2c-0.5,0-0.9,0.4-0.9,1s0.5,1,1.2,1.7c0.1,0.1,0.3,0.2,0.4,0.4c0,0,0,0,0.1,0s0.1,0,0.1,0 c0.2-0.1,0.3-0.3,0.4-0.4c0.7-0.6,1.2-1.1,1.2-1.7C63.5,10.7,63.1,10.3,62.6,10.3z" class="st3"/></svg>